<svg xmlns="http://www.w3.org/2000/svg" width="220" height="62" viewBox="0.001 0.001 220 62">
  <g clip-path="url(#a)">
    <path fill="url(#b)" d="M32.7 25.8v9.1c0 1.4 1.1 2.5 2.5 2.5s2.5-1.1 2.5-2.5v-9.3c0-6.6-5.3-11.9-11.9-11.9-6.6 0-11.9 5.3-11.9 11.9v22c0 .6-.5.9-.9.9-1.2 0-7.9-7.7-7.9-18.1C5.1 16.4 16.5 5 30.5 5c2.2 0 4.7.4 4.7.4 1.4 0 2.5-1.1 2.5-2.5 0-1.3-.9-2.3-2.1-2.5-1.7-.3-3.4-.4-5.1-.4C13.8 0 0 13.8 0 30.5c0 15.7 12.1 25.8 15.3 25.8 1.9 0 3.7-1.5 3.7-3.7v-27c0-3.8 3.1-6.8 6.8-6.8 3.9 0 6.9 3.2 6.9 7Z"/>
    <path fill="url(#c)" d="M45.7 4.7c-1.9 0-3.7 1.5-3.7 3.7v27c0 3.8-3.1 6.8-6.8 6.8-3.8 0-6.8-3.2-6.8-7v-9.1c0-1.4-1.1-2.5-2.5-2.5s-2.5 1.1-2.5 2.5v9.3c0 6.5 5.3 11.9 11.9 11.9 6.6 0 11.9-5.3 11.9-11.9v-22c0-.6.5-.9.9-.9 1.2 0 7.9 7.7 7.9 18.1C56 44.5 44.5 56 30.5 56c-2.2 0-4.7-.4-4.7-.4-1.4 0-2.5 1.1-2.5 2.5 0 1.3.9 2.3 2.1 2.5 1.7.3 3.4.4 5.1.4C47.3 61 61 47.2 61 30.5c.1-15.7-12-25.8-15.3-25.8Z"/>
    <path fill="url(#d)" d="M92.3 28.4c0-3.1-1.5-5.1-3.9-5.1-2.5 0-4 1.9-4 5.1v20.4H73.3V28.4c0-9.3 5.3-16.2 15.1-16.2s15 6.9 15 16.2v20.4H92.3V28.4Z"/>
    <path fill="url(#e)" d="M108.4 30.5c0-10.3 8.5-18.7 18.1-18.7 9.7 0 18.2 8.5 18.2 18.7 0 10.3-8.5 18.8-18.2 18.8s-18.1-8.5-18.1-18.8Zm11.1 0c0 4.2 3 7.6 7 7.6 4.1 0 7-3.4 7-7.6 0-4.1-2.9-7.6-7-7.6-4 0-7 3.5-7 7.6Z"/>
    <path fill="url(#f)" d="M162.6 49.3c-6.3 0-8-4.9-9.3-10.2l-7.2-26.9h11.6l4.9 23.6h.1l4.6-23.6h11.8l-7.8 26.9c-1.3 4.5-3 10.2-8.7 10.2Z"/>
    <path fill="url(#g)" d="M208.3 31.9c0-6.3-2.9-9.4-8.2-9.4-4.2 0-8 3.3-8 7.8 0 5.5 3.9 8.3 7.7 8.3 2.3 0 4.3-.5 5.5-1v9.7c-2.1 1.6-4.6 2.1-7.9 2.1-7.4 0-16.9-6.4-16.9-18.7 0-10.7 8.1-18.8 19.3-18.8 10.9 0 19.9 6 19.9 17.4V49h-11.5V31.9h.1Z"/>
    <path fill="#27688F" d="M76.1 59.2c-.2.2-.6.3-1.1.3h-.9V61h-.9v-4.3H75c.4 0 .8.1 1 .3.3.2.4.6.4 1 .1.6 0 .9-.3 1.2Zm-.7-1.6c-.1-.1-.3-.1-.5-.1h-.8v1.3h.9c.2 0 .4-.1.5-.2.1-.1.2-.3.2-.5-.1-.2-.2-.4-.3-.5Zm6.5-.9h.9v3.6h2.1v.7h-3v-4.3Zm8.3 0h.9v2.7c0 .3 0 .5.1.7.1.2.3.4.7.4.4 0 .6-.1.7-.4.1-.1.1-.4.1-.7v-2.7h.9v2.7c0 .5-.1.8-.2 1.1-.3.5-.8.7-1.5.7s-1.2-.2-1.5-.7c-.1-.3-.2-.6-.2-1.1v-2.7Zm11.8 0h1.3V61h-.8v-3.7l-.8 3.6h-.9l-.8-3.6V61h-.8v-4.3h1.3l.8 3.4.7-3.4Zm9.9.5c.1.2.2.4.2.7 0 .3-.1.5-.2.6-.1.1-.2.2-.3.2.2.1.4.2.5.4.1.2.2.4.2.6 0 .3-.1.5-.2.7l-.3.3c-.1.1-.3.2-.5.2s-.4.1-.6.1h-1.9v-4.3h2.1c.4 0 .8.2 1 .5Zm-2.3.3v1h1c.2 0 .3 0 .5-.1.1-.1.2-.2.2-.4s-.1-.3-.2-.4c-.1 0-.3-.1-.5-.1h-1Zm0 1.6v1.2h1c.2 0 .3 0 .4-.1.2-.1.3-.3.3-.5s-.1-.4-.3-.5c-.1 0-.2-.1-.4-.1h-1Zm8.9 1.9h-.9v-4.3h.9V61Zm5.5-4.3h.9l1.7 3v-3h.8V61h-.9l-1.7-3.1V61h-.8v-4.3Zm11.9 1.4c-.1-.3-.2-.5-.5-.6-.1-.1-.3-.1-.5-.1-.3 0-.6.1-.8.4-.2.3-.3.7-.3 1.2s.1.9.4 1.1c.2.2.5.3.8.3.3 0 .5-.1.7-.3.2-.2.3-.4.4-.7h-1v-.7h1.8V61h-.6l-.1-.5c-.2.2-.3.3-.5.4-.2.1-.5.2-.9.2-.6 0-1-.2-1.4-.6-.4-.4-.6-.9-.6-1.6 0-.7.2-1.3.6-1.7.4-.4.9-.6 1.5-.6.5 0 1 .1 1.3.4.3.3.5.6.6 1h-.9v.1Zm13.4 1.6c0 .2.1.3.2.4.1.2.4.3.8.3.2 0 .4 0 .5-.1.3-.1.4-.3.4-.5 0-.1-.1-.3-.2-.3-.1-.1-.3-.1-.6-.2l-.5-.1c-.5-.1-.8-.2-.9-.3-.3-.2-.4-.5-.4-.9s.1-.7.4-1c.3-.3.7-.4 1.2-.4s.8.1 1.2.4c.3.2.5.6.5 1.1h-.9c0-.3-.1-.4-.3-.6-.1-.1-.3-.1-.5-.1s-.4 0-.6.1c-.1.1-.2.2-.2.4s.1.3.2.3c.1.1.3.1.6.2l.7.2c.3.1.6.2.7.3.3.2.4.5.4.9s-.2.7-.5 1c-.3.3-.7.4-1.3.4-.6 0-1-.1-1.3-.4-.3-.3-.5-.6-.5-1.1h.9Zm11.2 1c-.3.3-.8.5-1.4.5-.6 0-1.1-.2-1.4-.5-.4-.4-.6-1-.6-1.8s.2-1.4.6-1.8c.3-.3.8-.5 1.4-.5.6 0 1.1.2 1.4.5.4.4.6 1 .6 1.8.1.7-.1 1.3-.6 1.8Zm-.5-.7c.2-.3.3-.6.3-1.1 0-.5-.1-.9-.3-1.1-.2-.3-.5-.4-.8-.4-.3 0-.6.1-.8.4-.2.3-.3.6-.3 1.1 0 .5.1.9.3 1.1.2.3.5.4.8.4.3 0 .6-.1.8-.4Zm6.5-3.3h.9v3.6h2.1v.7h-3v-4.3Zm8.3 0h.9v2.7c0 .3 0 .5.1.7.1.2.3.4.7.4.4 0 .6-.1.7-.4.1-.1.1-.4.1-.7v-2.7h.9v2.7c0 .5-.1.8-.2 1.1-.3.5-.8.7-1.5.7s-1.2-.2-1.5-.7c-.1-.3-.2-.6-.2-1.1v-2.7Zm12.1 0v.8h-1.3V61h-.9v-3.6h-1.3v-.8h3.5v.1Zm6 4.3h-.9v-4.3h.9V61Zm8.8-.3c-.3.3-.8.5-1.4.5-.6 0-1.1-.2-1.4-.5-.4-.4-.6-1-.6-1.8s.2-1.4.6-1.8c.3-.3.8-.5 1.4-.5.6 0 1.1.2 1.4.5.4.4.6 1 .6 1.8.1.7-.2 1.3-.6 1.8Zm-.5-.7c.2-.3.3-.6.3-1.1 0-.5-.1-.9-.3-1.1-.2-.3-.5-.4-.8-.4-.4 0-.6.1-.8.4-.2.3-.3.6-.3 1.1 0 .5.1.9.3 1.1.2.3.5.4.8.4.3 0 .5-.1.8-.4Zm6.5-3.3h.9l1.7 3v-3h.8V61h-.9l-1.7-3.1V61h-.8v-4.3Zm9.6 3c0 .2.1.3.2.4.1.2.4.3.8.3.2 0 .4 0 .5-.1.3-.1.4-.3.4-.5 0-.1-.1-.3-.2-.3-.1-.1-.3-.1-.6-.2l-.5-.1c-.5-.1-.8-.2-.9-.3-.3-.2-.4-.5-.4-.9s.1-.7.4-1c.3-.3.7-.4 1.2-.4s.8.1 1.2.4c.3.2.5.6.5 1.1h-.9c0-.3-.1-.4-.3-.6-.1-.1-.3-.1-.5-.1s-.4 0-.6.1c-.1.1-.2.2-.2.4s.1.3.2.3c.1.1.3.1.6.2l.7.2c.3.1.6.2.7.3.3.2.4.5.4.9s-.2.7-.5 1c-.3.3-.7.4-1.3.4-.6 0-1-.1-1.3-.4-.3-.3-.5-.6-.5-1.1h.9Z"/>
  </g>
  <defs>
    <linearGradient id="d" x1="88.338" x2="88.338" y1="11.609" y2="49.37" gradientUnits="userSpaceOnUse">
      <stop stop-color="#1C9AD6"/>
      <stop offset="1" stop-color="#27688F"/>
    </linearGradient>
    <linearGradient id="e" x1="126.501" x2="126.501" y1="11.609" y2="49.37" gradientUnits="userSpaceOnUse">
      <stop stop-color="#1C9AD6"/>
      <stop offset="1" stop-color="#27688F"/>
    </linearGradient>
    <linearGradient id="f" x1="162.621" x2="162.621" y1="11.609" y2="49.37" gradientUnits="userSpaceOnUse">
      <stop stop-color="#1C9AD6"/>
      <stop offset="1" stop-color="#27688F"/>
    </linearGradient>
    <linearGradient id="g" x1="200.2" x2="200.2" y1="11.609" y2="49.37" gradientUnits="userSpaceOnUse">
      <stop stop-color="#1C9AD6"/>
      <stop offset="1" stop-color="#27688F"/>
    </linearGradient>
    <radialGradient id="b" cx="0" cy="0" r="1" gradientTransform="translate(30.366 31.471) scale(29.8094)" gradientUnits="userSpaceOnUse">
      <stop stop-color="#1C9AD6"/>
      <stop offset="1" stop-color="#27688F"/>
    </radialGradient>
    <radialGradient id="c" cx="0" cy="0" r="1" gradientTransform="translate(30.366 31.471) scale(29.8094)" gradientUnits="userSpaceOnUse">
      <stop stop-color="#1C9AD6"/>
      <stop offset="1" stop-color="#27688F"/>
    </radialGradient>
    <clipPath id="a">
      <path fill="#fff" d="M0 0h220v62H0z"/>
    </clipPath>
  </defs>
</svg>