<svg xmlns="http://www.w3.org/2000/svg" width="25" height="24" fill="none" viewBox="0 0 25 24">
  <path fill="currentColor" d="m24.542 20.75-4.674-4.673a1.124 1.124 0 0 0-.796-.329h-.765A9.7 9.7 0 0 0 20.37 9.75 9.748 9.748 0 0 0 10.62 0 9.749 9.749 0 0 0 .868 9.75c0 5.384 4.364 9.748 9.75 9.748a9.704 9.704 0 0 0 6-2.062v.764c0 .3.118.586.329.797l4.674 4.673c.44.44 1.153.44 1.589 0l1.327-1.327c.44-.44.44-1.153.004-1.593ZM10.62 15.748c-3.314 0-6-2.68-6-5.999 0-3.314 2.681-6 6-6 3.315 0 6 2.682 6 6 0 3.314-2.68 6-6 6Z"/>
</svg>