<svg xmlns="http://www.w3.org/2000/svg" width="40" height="40">
  <path fill="currentColor" d="M39.588 9.995c.275-.929 0-1.612-1.321-1.612h-4.374c-1.114 0-1.626.587-1.901 1.24 0 0-2.228 5.429-5.376 8.948-1.017 1.017-1.485 1.344-2.042 1.344-.275 0-.698-.326-.698-1.255V9.995c0-1.114-.312-1.612-1.233-1.612h-6.876c-.698 0-1.114.52-1.114 1.003 0 1.054 1.574 1.3 1.738 4.27V20.1c0 1.41-.253 1.67-.81 1.67-1.485 0-5.094-5.45-7.232-11.687-.43-1.21-.854-1.7-1.975-1.7H2c-1.248 0-1.5.586-1.5 1.24 0 1.158 1.485 6.913 6.913 14.516 3.617 5.19 8.71 8.005 13.344 8.005 2.785 0 3.126-.624 3.126-1.7 0-4.96-.252-5.428 1.144-5.428.646 0 1.76.326 4.359 2.829 2.97 2.97 3.46 4.3 5.123 4.3h4.374c1.247 0 1.879-.625 1.515-1.857-.832-2.592-6.453-7.923-6.706-8.28-.646-.831-.46-1.203 0-1.945.008-.008 5.347-7.522 5.896-10.07Z"/>
</svg>