<!-- <svg xmlns="http://www.w3.org/2000/svg" width="40" height="40">
  <path fill="currentColor"
    d="M39.665 10.604a5.02 5.02 0 0
0-3.537-3.559c-3.12-.842-15.628-.842-15.628-.842s-12.508 0-15.628.842a5.02 5.02 0 0 0-3.537 3.56C.5
13.745.5 20.292.5 20.292s0 6.547.835 9.689c.461 1.736 1.816 3.04 3.537 3.5 3.12.843 15.628.843
15.628.843s12.508 0 15.628-.843c1.721-.46 3.076-1.772
3.537-3.5.835-3.142.835-9.689.835-9.689s0-6.547-.835-9.689ZM16.414 26.24V14.347l10.45 5.946-10.45
5.947Z" />
</svg> -->

<svg xmlns="http://www.w3.org/2000/svg" height="100%" version="1.1" viewBox="0 0 68 48" width="100%">
  <path
    d="M66.52,7.74c-0.78-2.93-2.49-5.41-5.42-6.19C55.79,.13,34,0,34,0S12.21,.13,6.9,1.55 C3.97,2.33,2.27,4.81,1.48,7.74C0.06,13.05,0,24,0,24s0.06,10.95,1.48,16.26c0.78,2.93,2.49,5.41,5.42,6.19 C12.21,47.87,34,48,34,48s21.79-0.13,27.1-1.55c2.93-0.78,4.64-3.26,5.42-6.19C67.94,34.95,68,24,68,24S67.94,13.05,66.52,7.74z"
    fill="currentColor"></path>
  <path d="M 45,24 27,14 27,34" fill="#fff"></path>
</svg>