<?xml version="1.0" standalone="no"?>
<!DOCTYPE svg PUBLIC "-//W3C//DTD SVG 20010904//EN"
 "http://www.w3.org/TR/2001/REC-SVG-20010904/DTD/svg10.dtd">
<svg version="1.0" xmlns="http://www.w3.org/2000/svg"
 width="500.000000pt" height="500.000000pt" viewBox="0 0 500.000000 500.000000"
 preserveAspectRatio="xMidYMid meet">
<metadata>
Created by potrace 1.14, written by Peter Selinger 2001-2017
</metadata>
<g transform="translate(0.000000,500.000000) scale(0.100000,-0.100000)"
fill="#000000" stroke="none">
<path d="M2308 4995 c-1 -1 -32 -6 -68 -9 -86 -9 -120 -14 -210 -33 -41 -8
-83 -17 -93 -18 -29 -6 -171 -45 -187 -52 -8 -3 -21 -7 -28 -9 -62 -13 -314
-126 -467 -211 -293 -162 -636 -485 -831 -782 -31 -47 -65 -98 -74 -112 -10
-14 -49 -88 -87 -165 -116 -235 -185 -445 -229 -701 -24 -137 -28 -186 -28
-373 -1 -229 3 -289 29 -440 69 -404 237 -788 497 -1134 123 -164 295 -335
444 -442 114 -81 215 -126 283 -126 111 0 218 68 268 169 l28 58 1 1181 1
1181 22 74 c56 183 181 316 355 377 83 29 225 37 311 17 179 -42 341 -191 406
-376 22 -62 23 -77 26 -509 2 -250 8 -462 14 -483 27 -101 142 -162 253 -134
54 14 121 80 135 134 18 65 14 906 -5 1000 -38 202 -134 382 -276 519 -191
185 -409 276 -668 277 -132 1 -182 -5 -295 -38 -258 -75 -472 -255 -593 -500
-49 -100 -68 -158 -87 -265 -13 -71 -15 -238 -15 -1037 0 -523 -3 -959 -6
-968 -4 -8 -18 -22 -33 -29 -36 -19 -71 -3 -137 60 -183 177 -367 508 -458
823 -47 163 -62 239 -81 426 -6 55 -6 268 0 335 66 749 518 1395 1198 1714
106 50 302 121 363 132 16 3 46 9 67 15 123 32 295 48 487 44 107 -3 218 -9
245 -14 92 -16 167 -9 212 21 130 86 120 282 -18 354 -17 8 -58 20 -92 25 -34
5 -73 12 -87 15 -27 6 -486 15 -492 9z"/>
<path d="M3694 4609 c-100 -19 -185 -86 -228 -178 -21 -46 -21 -50 -22 -1216
-1 -882 -4 -1185 -14 -1230 -28 -139 -116 -268 -238 -348 -91 -61 -176 -88
-287 -92 -182 -7 -338 67 -456 215 -38 48 -92 155 -103 205 -3 17 -9 41 -11
55 -3 14 -6 216 -6 450 0 423 0 425 -23 476 -74 161 -295 158 -372 -5 -15 -32
-17 -81 -17 -456 0 -430 3 -505 28 -611 78 -341 359 -628 701 -719 83 -22 163
-30 279 -28 464 6 869 368 934 833 5 36 10 492 10 1013 1 643 5 955 12 968 16
31 55 42 87 25 92 -49 258 -263 369 -477 128 -245 204 -488 241 -769 9 -74 9
-379 -1 -460 -14 -111 -17 -132 -42 -235 -41 -174 -129 -406 -192 -507 -13
-21 -23 -40 -23 -42 0 -6 -100 -166 -115 -183 -12 -15 -19 -24 -65 -83 -230
-297 -560 -537 -921 -670 -117 -43 -316 -96 -395 -105 -28 -3 -61 -8 -75 -11
-57 -14 -397 -12 -509 3 -139 17 -188 13 -239 -20 -101 -67 -120 -214 -39
-308 20 -23 108 -76 108 -65 0 2 17 0 38 -5 76 -17 193 -24 402 -24 187 1 263
6 415 31 136 22 396 96 492 140 17 8 34 14 37 14 4 0 69 31 144 68 205 101
406 238 565 382 119 108 205 199 296 315 34 44 68 87 75 95 34 43 154 244 202
339 132 265 225 583 252 861 13 143 7 487 -12 610 -19 128 -72 346 -110 458
-146 425 -434 844 -763 1109 -176 142 -309 202 -409 182z"/>
</g>
</svg>
